<mxfile host="drawio-plugin" modified="2024-01-24T15:02:00.772Z" agent="5.0 (Windows NT 10.0; Win64; x64) AppleWebKit/537.36 (KHTML, like Gecko) Chrome/111.0.0.0 Safari/537.36" etag="-u7zxqJHEaTcYaWHC6aM" version="20.5.3" type="embed"><diagram name="Seite-1" id="2nyF9EO_NIBPM2fhs2Vm"><mxGraphModel dx="2209" dy="1158" grid="1" gridSize="10" guides="1" tooltips="1" connect="1" arrows="1" fold="1" page="1" pageScale="1" pageWidth="827" pageHeight="1169" math="0" shadow="0"><root><mxCell id="0"/><mxCell id="1" parent="0"/><mxCell id="OJA7dDcQ_NL5qWjT5lvc-58" value="Actor" style="shape=umlActor;verticalLabelPosition=bottom;verticalAlign=top;html=1;" parent="1" vertex="1"><mxGeometry x="40" y="130" width="30" height="60" as="geometry"/></mxCell><mxCell id="OJA7dDcQ_NL5qWjT5lvc-59" value="ATM" style="verticalAlign=top;align=left;spacingTop=8;spacingLeft=2;spacingRight=12;shape=cube;size=10;direction=south;fontStyle=4;html=1;whiteSpace=wrap;" parent="1" vertex="1"><mxGeometry x="123" y="75" width="420" height="290" as="geometry"/></mxCell><mxCell id="OJA7dDcQ_NL5qWjT5lvc-60" value="Enter Account credentials" style="ellipse;whiteSpace=wrap;html=1;" parent="1" vertex="1"><mxGeometry x="165" y="125" width="140" height="70" as="geometry"/></mxCell><mxCell id="OJA7dDcQ_NL5qWjT5lvc-61" value="Account overview" style="ellipse;whiteSpace=wrap;html=1;" parent="1" vertex="1"><mxGeometry x="345" y="125" width="140" height="70" as="geometry"/></mxCell><mxCell id="OJA7dDcQ_NL5qWjT5lvc-62" value="Menu Overview" style="ellipse;whiteSpace=wrap;html=1;" parent="1" vertex="1"><mxGeometry x="345" y="245" width="140" height="70" as="geometry"/></mxCell><mxCell id="OJA7dDcQ_NL5qWjT5lvc-66" value="" style="endArrow=block;endSize=16;endFill=0;html=1;rounded=0;" parent="1" edge="1"><mxGeometry width="160" relative="1" as="geometry"><mxPoint x="75" y="159.5" as="sourcePoint"/><mxPoint x="165" y="160" as="targetPoint"/></mxGeometry></mxCell><mxCell id="OJA7dDcQ_NL5qWjT5lvc-67" value="" style="endArrow=block;endSize=16;endFill=0;html=1;rounded=0;" parent="1" edge="1"><mxGeometry width="160" relative="1" as="geometry"><mxPoint x="305" y="159.5" as="sourcePoint"/><mxPoint x="345" y="160" as="targetPoint"/></mxGeometry></mxCell><mxCell id="OJA7dDcQ_NL5qWjT5lvc-70" value="" style="endArrow=block;endSize=16;endFill=0;html=1;rounded=0;exitX=0.5;exitY=1;exitDx=0;exitDy=0;" parent="1" source="OJA7dDcQ_NL5qWjT5lvc-61" target="OJA7dDcQ_NL5qWjT5lvc-62" edge="1"><mxGeometry width="160" relative="1" as="geometry"><mxPoint x="405" y="195" as="sourcePoint"/><mxPoint x="495" y="195.5" as="targetPoint"/></mxGeometry></mxCell><mxCell id="OJA7dDcQ_NL5qWjT5lvc-71" value="Actor" style="shape=umlActor;verticalLabelPosition=bottom;verticalAlign=top;html=1;" parent="1" vertex="1"><mxGeometry x="40" y="460" width="30" height="60" as="geometry"/></mxCell><mxCell id="OJA7dDcQ_NL5qWjT5lvc-72" value="ATM" style="verticalAlign=top;align=left;spacingTop=8;spacingLeft=2;spacingRight=12;shape=cube;size=10;direction=south;fontStyle=4;html=1;whiteSpace=wrap;" parent="1" vertex="1"><mxGeometry x="123" y="405" width="420" height="410" as="geometry"/></mxCell><mxCell id="OJA7dDcQ_NL5qWjT5lvc-88" style="edgeStyle=orthogonalEdgeStyle;rounded=0;orthogonalLoop=1;jettySize=auto;html=1;exitX=1;exitY=0.5;exitDx=0;exitDy=0;entryX=0;entryY=0.5;entryDx=0;entryDy=0;" parent="1" source="OJA7dDcQ_NL5qWjT5lvc-73" target="OJA7dDcQ_NL5qWjT5lvc-74" edge="1"><mxGeometry relative="1" as="geometry"/></mxCell><mxCell id="OJA7dDcQ_NL5qWjT5lvc-73" value="Select withdraw function" style="ellipse;whiteSpace=wrap;html=1;" parent="1" vertex="1"><mxGeometry x="165" y="455" width="140" height="70" as="geometry"/></mxCell><mxCell id="OJA7dDcQ_NL5qWjT5lvc-89" style="edgeStyle=orthogonalEdgeStyle;rounded=0;orthogonalLoop=1;jettySize=auto;html=1;exitX=0;exitY=1;exitDx=0;exitDy=0;entryX=1;entryY=0;entryDx=0;entryDy=0;" parent="1" source="OJA7dDcQ_NL5qWjT5lvc-74" target="OJA7dDcQ_NL5qWjT5lvc-75" edge="1"><mxGeometry relative="1" as="geometry"/></mxCell><mxCell id="OJA7dDcQ_NL5qWjT5lvc-74" value="Enter the Ammount" style="ellipse;whiteSpace=wrap;html=1;" parent="1" vertex="1"><mxGeometry x="345" y="455" width="140" height="70" as="geometry"/></mxCell><mxCell id="OJA7dDcQ_NL5qWjT5lvc-75" value="Confirm the amount" style="ellipse;whiteSpace=wrap;html=1;" parent="1" vertex="1"><mxGeometry x="185" y="575" width="140" height="70" as="geometry"/></mxCell><mxCell id="OJA7dDcQ_NL5qWjT5lvc-79" value="Use Case - Login" style="text;align=center;fontStyle=1;verticalAlign=middle;spacingLeft=3;spacingRight=3;strokeColor=none;rotatable=0;points=[[0,0.5],[1,0.5]];portConstraint=eastwest;html=1;" parent="1" vertex="1"><mxGeometry x="125" y="40" width="80" height="26" as="geometry"/></mxCell><mxCell id="OJA7dDcQ_NL5qWjT5lvc-80" value="Use Case - Withdraw" style="text;align=center;fontStyle=1;verticalAlign=middle;spacingLeft=3;spacingRight=3;strokeColor=none;rotatable=0;points=[[0,0.5],[1,0.5]];portConstraint=eastwest;html=1;" parent="1" vertex="1"><mxGeometry x="135" y="379" width="80" height="26" as="geometry"/></mxCell><mxCell id="OJA7dDcQ_NL5qWjT5lvc-81" value="Max 10.000 €" style="shape=parallelogram;perimeter=parallelogramPerimeter;whiteSpace=wrap;html=1;fixedSize=1;" parent="1" vertex="1"><mxGeometry x="615" y="415" width="120" height="60" as="geometry"/></mxCell><mxCell id="OJA7dDcQ_NL5qWjT5lvc-82" value="" style="endArrow=none;dashed=1;html=1;rounded=0;exitX=0.984;exitY=0.414;exitDx=0;exitDy=0;exitPerimeter=0;" parent="1" source="OJA7dDcQ_NL5qWjT5lvc-74" edge="1"><mxGeometry width="50" height="50" relative="1" as="geometry"><mxPoint x="575" y="495" as="sourcePoint"/><mxPoint x="625" y="445" as="targetPoint"/></mxGeometry></mxCell><mxCell id="OJA7dDcQ_NL5qWjT5lvc-97" style="edgeStyle=orthogonalEdgeStyle;rounded=0;orthogonalLoop=1;jettySize=auto;html=1;exitX=1;exitY=0.5;exitDx=0;exitDy=0;entryX=0;entryY=0.5;entryDx=0;entryDy=0;" parent="1" source="OJA7dDcQ_NL5qWjT5lvc-83" target="OJA7dDcQ_NL5qWjT5lvc-96" edge="1"><mxGeometry relative="1" as="geometry"/></mxCell><mxCell id="OJA7dDcQ_NL5qWjT5lvc-83" value="Validate the amount" style="ellipse;whiteSpace=wrap;html=1;" parent="1" vertex="1"><mxGeometry x="385" y="605" width="140" height="70" as="geometry"/></mxCell><mxCell id="OJA7dDcQ_NL5qWjT5lvc-93" style="edgeStyle=orthogonalEdgeStyle;rounded=0;orthogonalLoop=1;jettySize=auto;html=1;exitX=1;exitY=1;exitDx=0;exitDy=0;entryX=0;entryY=0.5;entryDx=0;entryDy=0;" parent="1" source="OJA7dDcQ_NL5qWjT5lvc-90" target="OJA7dDcQ_NL5qWjT5lvc-91" edge="1"><mxGeometry relative="1" as="geometry"/></mxCell><mxCell id="OJA7dDcQ_NL5qWjT5lvc-90" value="Withdraw the money" style="ellipse;whiteSpace=wrap;html=1;" parent="1" vertex="1"><mxGeometry x="175" y="695" width="140" height="70" as="geometry"/></mxCell><mxCell id="OJA7dDcQ_NL5qWjT5lvc-91" value="Main overview" style="ellipse;whiteSpace=wrap;html=1;" parent="1" vertex="1"><mxGeometry x="385" y="715" width="140" height="70" as="geometry"/></mxCell><mxCell id="OJA7dDcQ_NL5qWjT5lvc-92" style="edgeStyle=orthogonalEdgeStyle;rounded=0;orthogonalLoop=1;jettySize=auto;html=1;exitX=0.5;exitY=1;exitDx=0;exitDy=0;entryX=0.553;entryY=0.02;entryDx=0;entryDy=0;entryPerimeter=0;" parent="1" source="OJA7dDcQ_NL5qWjT5lvc-75" target="OJA7dDcQ_NL5qWjT5lvc-90" edge="1"><mxGeometry relative="1" as="geometry"/></mxCell><mxCell id="OJA7dDcQ_NL5qWjT5lvc-94" value="" style="endArrow=none;dashed=1;html=1;rounded=0;exitX=0.984;exitY=0.414;exitDx=0;exitDy=0;exitPerimeter=0;entryX=0.039;entryY=0.271;entryDx=0;entryDy=0;entryPerimeter=0;" parent="1" target="OJA7dDcQ_NL5qWjT5lvc-83" edge="1"><mxGeometry width="50" height="50" relative="1" as="geometry"><mxPoint x="335" y="614" as="sourcePoint"/><mxPoint x="477" y="575" as="targetPoint"/></mxGeometry></mxCell><mxCell id="OJA7dDcQ_NL5qWjT5lvc-95" value="&amp;lt;&amp;lt;extend&amp;gt;&amp;gt;" style="text;strokeColor=none;fillColor=none;align=left;verticalAlign=middle;spacingLeft=4;spacingRight=4;overflow=hidden;points=[[0,0.5],[1,0.5]];portConstraint=eastwest;rotatable=0;whiteSpace=wrap;html=1;" parent="1" vertex="1"><mxGeometry x="325" y="595" width="80" height="30" as="geometry"/></mxCell><mxCell id="OJA7dDcQ_NL5qWjT5lvc-98" value="" style="shape=mxgraph.signs.travel.bank;html=1;pointerEvents=1;fillColor=#000000;strokeColor=none;verticalLabelPosition=bottom;verticalAlign=top;align=center;" parent="1" vertex="1"><mxGeometry x="625.5" y="567" width="99" height="86" as="geometry"/></mxCell><mxCell id="OJA7dDcQ_NL5qWjT5lvc-96" value="" style="image;html=1;image=img/lib/clip_art/finance/Coins_128x128.png" parent="1" vertex="1"><mxGeometry x="625" y="610" width="50" height="60" as="geometry"/></mxCell><mxCell id="OJA7dDcQ_NL5qWjT5lvc-87" style="edgeStyle=orthogonalEdgeStyle;rounded=0;orthogonalLoop=1;jettySize=auto;html=1;exitX=0.5;exitY=0.5;exitDx=0;exitDy=0;exitPerimeter=0;" parent="1" source="OJA7dDcQ_NL5qWjT5lvc-71" target="OJA7dDcQ_NL5qWjT5lvc-73" edge="1"><mxGeometry relative="1" as="geometry"/></mxCell><mxCell id="2" value="Actor" style="shape=umlActor;verticalLabelPosition=bottom;verticalAlign=top;html=1;" vertex="1" parent="1"><mxGeometry x="40" y="932" width="30" height="60" as="geometry"/></mxCell><mxCell id="3" value="ATM" style="verticalAlign=top;align=left;spacingTop=8;spacingLeft=2;spacingRight=12;shape=cube;size=10;direction=south;fontStyle=4;html=1;whiteSpace=wrap;" vertex="1" parent="1"><mxGeometry x="123" y="877" width="465" height="505" as="geometry"/></mxCell><mxCell id="4" value="Login" style="ellipse;whiteSpace=wrap;html=1;" vertex="1" parent="1"><mxGeometry x="165" y="927" width="140" height="70" as="geometry"/></mxCell><mxCell id="5" value="Transaction" style="ellipse;whiteSpace=wrap;html=1;" vertex="1" parent="1"><mxGeometry x="225" y="1062" width="140" height="70" as="geometry"/></mxCell><mxCell id="25" style="edgeStyle=orthogonalEdgeStyle;rounded=0;orthogonalLoop=1;jettySize=auto;html=1;exitX=1;exitY=0;exitDx=0;exitDy=0;" edge="1" parent="1" source="6" target="5"><mxGeometry relative="1" as="geometry"/></mxCell><mxCell id="6" value="Withdraw" style="ellipse;whiteSpace=wrap;html=1;" vertex="1" parent="1"><mxGeometry x="125" y="1252" width="140" height="70" as="geometry"/></mxCell><mxCell id="7" value="" style="endArrow=block;endSize=16;endFill=0;html=1;rounded=0;" edge="1" parent="1"><mxGeometry width="160" relative="1" as="geometry"><mxPoint x="75" y="961.5" as="sourcePoint"/><mxPoint x="165" y="962" as="targetPoint"/></mxGeometry></mxCell><mxCell id="10" value="Use Case - ATM-System" style="text;align=center;fontStyle=1;verticalAlign=middle;spacingLeft=3;spacingRight=3;strokeColor=none;rotatable=0;points=[[0,0.5],[1,0.5]];portConstraint=eastwest;html=1;" vertex="1" parent="1"><mxGeometry x="125" y="842" width="80" height="26" as="geometry"/></mxCell><mxCell id="24" style="edgeStyle=orthogonalEdgeStyle;rounded=0;orthogonalLoop=1;jettySize=auto;html=1;exitX=0.5;exitY=0;exitDx=0;exitDy=0;entryX=0.667;entryY=0.969;entryDx=0;entryDy=0;entryPerimeter=0;" edge="1" parent="1" source="13" target="5"><mxGeometry relative="1" as="geometry"/></mxCell><mxCell id="13" value="Deposit" style="ellipse;whiteSpace=wrap;html=1;" vertex="1" parent="1"><mxGeometry x="305" y="1262" width="140" height="70" as="geometry"/></mxCell><mxCell id="18" style="edgeStyle=orthogonalEdgeStyle;rounded=0;orthogonalLoop=1;jettySize=auto;html=1;exitX=0;exitY=0.5;exitDx=0;exitDy=0;entryX=0.736;entryY=0.143;entryDx=0;entryDy=0;entryPerimeter=0;" edge="1" parent="1" source="14" target="5"><mxGeometry relative="1" as="geometry"/></mxCell><mxCell id="14" value="Account overview" style="ellipse;whiteSpace=wrap;html=1;" vertex="1" parent="1"><mxGeometry x="403" y="942" width="140" height="70" as="geometry"/></mxCell><mxCell id="23" style="edgeStyle=orthogonalEdgeStyle;rounded=0;orthogonalLoop=1;jettySize=auto;html=1;exitX=0;exitY=0;exitDx=0;exitDy=0;entryX=0.931;entryY=0.754;entryDx=0;entryDy=0;entryPerimeter=0;" edge="1" parent="1" source="15" target="5"><mxGeometry relative="1" as="geometry"/></mxCell><mxCell id="15" value="Print statement" style="ellipse;whiteSpace=wrap;html=1;" vertex="1" parent="1"><mxGeometry x="417" y="1142" width="140" height="70" as="geometry"/></mxCell><mxCell id="16" value="" style="group" vertex="1" connectable="0" parent="1"><mxGeometry x="635.5" y="1024" width="99.5" height="103" as="geometry"/></mxCell><mxCell id="11" value="" style="shape=mxgraph.signs.travel.bank;html=1;pointerEvents=1;fillColor=#000000;strokeColor=none;verticalLabelPosition=bottom;verticalAlign=top;align=center;" vertex="1" parent="16"><mxGeometry x="0.5" width="99" height="86" as="geometry"/></mxCell><mxCell id="12" value="" style="image;html=1;image=img/lib/clip_art/finance/Coins_128x128.png" vertex="1" parent="16"><mxGeometry y="43" width="50" height="60" as="geometry"/></mxCell><mxCell id="17" style="edgeStyle=orthogonalEdgeStyle;rounded=0;orthogonalLoop=1;jettySize=auto;html=1;exitX=0;exitY=0;exitDx=0;exitDy=0;" edge="1" parent="1" source="12" target="5"><mxGeometry relative="1" as="geometry"><Array as="points"><mxPoint x="636" y="1047"/><mxPoint x="578" y="1047"/><mxPoint x="578" y="1067"/></Array></mxGeometry></mxCell><mxCell id="26" value="" style="endArrow=none;dashed=1;html=1;rounded=0;entryX=0.5;entryY=1;entryDx=0;entryDy=0;exitX=0.5;exitY=0;exitDx=0;exitDy=0;" edge="1" parent="1" source="5" target="4"><mxGeometry width="50" height="50" relative="1" as="geometry"><mxPoint x="165" y="1076" as="sourcePoint"/><mxPoint x="215" y="1026" as="targetPoint"/></mxGeometry></mxCell><mxCell id="28" value="&amp;lt;&amp;lt; include &amp;gt;&amp;gt;" style="text;html=1;strokeColor=none;fillColor=none;align=center;verticalAlign=middle;whiteSpace=wrap;rounded=0;" vertex="1" parent="1"><mxGeometry x="185" y="1012" width="90" height="30" as="geometry"/></mxCell></root></mxGraphModel></diagram></mxfile>